<svg width="0" height="0" style="position:absolute"><symbol viewBox="0 0 15 8" id="arrow-down-v2"><path d="M1.587 1.493l5.976 5.014M7.73 6.507l5.974-5.014" fill="none" fill-rule="evenodd" stroke="currentColor" stroke-linecap="round" stroke-width="2"/></symbol><symbol viewBox="0 0 240.823 240.823" xml:space="preserve" enable-background="new 0 0 240.823 240.823" id="next-icon"><path d="M183.189,111.816L74.892,3.555c-4.752-4.74-12.451-4.74-17.215,0c-4.752,4.74-4.752,12.439,0,17.179
		l99.707,99.671l-99.695,99.671c-4.752,4.74-4.752,12.439,0,17.191c4.752,4.74,12.463,4.74,17.215,0l108.297-108.261
		C187.881,124.315,187.881,116.495,183.189,111.816z"/><g/><g/><g/><g/><g/><g/><g/><g/><g/><g/><g/><g/><g/><g/><g/><g/><g/><g/><g/><g/><g/></symbol><symbol viewBox="0 0 24 24" fill="none" id="plus-unsafe"><path fill-rule="evenodd" clip-rule="evenodd" d="M12 0C11.4477 0 11 0.447716 11 1V11H1C0.447715 11 0 11.4477 0 12C0 12.5523 0.447716 13 1 13H11V23C11 23.5523 11.4477 24 12 24C12.5523 24 13 23.5523 13 23V13H23C23.5523 13 24 12.5523 24 12C24 11.4477 23.5523 11 23 11H13V1C13 0.447715 12.5523 0 12 0Z" fill="currentColor"/></symbol><symbol viewBox="0 0 791.966 791.967" xml:space="preserve" enable-background="new 0 0 791.966 791.967" id="prev-icon"><path d="M245.454,396.017L617.077,56.579c12.973-12.94,12.973-33.934,0-46.874c-12.973-12.94-34.033-12.94-47.006,0
				L174.615,370.896c-6.932,6.899-9.87,16.076-9.408,25.087c-0.462,9.045,2.476,18.188,9.408,25.088l395.456,361.19
				c12.973,12.94,34.033,12.94,47.006,0c12.973-12.939,12.973-33.934,0-46.873L245.454,396.017z"/><g/><g/><g/><g/><g/><g/><g/><g/><g/><g/><g/><g/><g/><g/><g/></symbol><symbol viewBox="0 0 24 24" id="remove-icon"><path d="M 4.9902344 3.9902344 A 1.0001 1.0001 0 0 0 4.2929688 5.7070312 L 10.585938 12 L 4.2929688 18.292969 A 1.0001 1.0001 0 1 0 5.7070312 19.707031 L 12 13.414062 L 18.292969 19.707031 A 1.0001 1.0001 0 1 0 19.707031 18.292969 L 13.414062 12 L 19.707031 5.7070312 A 1.0001 1.0001 0 0 0 18.980469 3.9902344 A 1.0001 1.0001 0 0 0 18.292969 4.2929688 L 12 10.585938 L 5.7070312 4.2929688 A 1.0001 1.0001 0 0 0 4.9902344 3.9902344 z" fill="currentColor"/></symbol></svg>